<svg width="25" height="25" viewBox="0 0 25 25" fill="none" xmlns="http://www.w3.org/2000/svg">
<path d="M11.5 8.69531V3.69531C11.5 3.14303 11.0523 2.69531 10.5 2.69531H3.5C2.94772 2.69531 2.5 3.14303 2.5 3.69531V8.69531C2.5 10.9044 4.29086 12.6953 6.5 12.6953H7.5C9.70914 12.6953 11.5 10.9044 11.5 8.69531Z" stroke="#333333" stroke-width="2" stroke-linecap="round" stroke-linejoin="round"/>
<path d="M15.5 16.6953V2.69531H18.5C20.7091 2.69531 22.5 4.48617 22.5 6.69531V16.6953H18.5" stroke="#333333" stroke-width="2" stroke-linecap="round" stroke-linejoin="round"/>
<path d="M15.5 16.6953V21.6953C15.5 22.2476 15.9477 22.6953 16.5 22.6953H17.5C18.0523 22.6953 18.5 22.2476 18.5 21.6953V16.6953" stroke="#333333" stroke-width="2" stroke-linecap="round" stroke-linejoin="round"/>
<path d="M5.5 12.6953V21.6953C5.5 22.2476 5.94772 22.6953 6.5 22.6953H7.5C8.05228 22.6953 8.5 22.2476 8.5 21.6953V12.6953" stroke="#333333" stroke-width="2" stroke-linecap="round" stroke-linejoin="round"/>
<path d="M5.5 6.69531V2.69531" stroke="#333333" stroke-width="2" stroke-linecap="round" stroke-linejoin="round"/>
<path d="M8.5 6.69531V2.69531" stroke="#333333" stroke-width="2" stroke-linecap="round" stroke-linejoin="round"/>
</svg>
