<svg width="29" height="29" viewBox="0 0 29 29" fill="none" xmlns="http://www.w3.org/2000/svg">
<path d="M11.9667 6.52865L9.63333 8.86198H5.16683V22.862H23.8335V8.86198H19.367L17.0337 6.52865H11.9667ZM11.0002 4.19531H18.0002L20.3335 6.52865H25.0002C25.6445 6.52865 26.1668 7.05099 26.1668 7.69531V24.0286C26.1668 24.673 25.6445 25.1953 25.0002 25.1953H4.00016C3.35584 25.1953 2.8335 24.673 2.8335 24.0286V7.69531C2.8335 7.05099 3.35584 6.52865 4.00016 6.52865H8.66683L11.0002 4.19531ZM14.5002 21.6953C10.9563 21.6953 8.0835 18.8225 8.0835 15.2786C8.0835 11.7348 10.9563 8.86198 14.5002 8.86198C18.044 8.86198 20.9168 11.7348 20.9168 15.2786C20.9168 18.8225 18.044 21.6953 14.5002 21.6953ZM14.5002 19.362C16.7553 19.362 18.5835 17.5338 18.5835 15.2786C18.5835 13.0235 16.7553 11.1953 14.5002 11.1953C12.245 11.1953 10.4168 13.0235 10.4168 15.2786C10.4168 17.5338 12.245 19.362 14.5002 19.362Z" fill="white"/>
</svg>
