<svg width="24" height="25" viewBox="0 0 24 25" fill="none" xmlns="http://www.w3.org/2000/svg">
<path fill-rule="evenodd" clip-rule="evenodd" d="M16.982 9.69324C17.5399 8.43803 16.2573 7.15544 15.0021 7.71332L10.0018 9.93566C9.66252 10.0865 9.39118 10.3578 9.24036 10.6971L7.01801 15.6974C6.46014 16.9526 7.74272 18.2352 8.99794 17.6773L13.9982 15.455C14.3375 15.3042 14.6089 15.0328 14.7597 14.6935L16.982 9.69324ZM10.9898 11.6851L14.6264 10.0689L13.0102 13.7055L9.37362 15.3217L10.9898 11.6851Z" fill="currentColor"/>
<path fill-rule="evenodd" clip-rule="evenodd" d="M12 23.6953C18.0751 23.6953 23 18.7704 23 12.6953C23 6.62018 18.0751 1.69531 12 1.69531C5.92487 1.69531 1 6.62018 1 12.6953C1 18.7704 5.92487 23.6953 12 23.6953ZM12 21.6822C7.03665 21.6822 3.01306 17.6586 3.01306 12.6953C3.01306 7.73196 7.03665 3.70837 12 3.70837C16.9633 3.70837 20.9869 7.73196 20.9869 12.6953C20.9869 17.6586 16.9633 21.6822 12 21.6822Z" fill="currentColor"/>
</svg>
